<svg width="12" height="3" viewBox="0 0 12 3" fill="none" xmlns="http://www.w3.org/2000/svg">
<path fill-rule="evenodd" clip-rule="evenodd" d="M1.198 0.302979C0.537 0.302979 0 0.839979 0 1.49898C0 2.15898 0.537 2.69698 1.198 2.69698C1.859 2.69698 2.396 2.15898 2.396 1.49898C2.396 0.839979 1.859 0.302979 1.198 0.302979ZM5.6771 0.302979C5.0161 0.302979 4.4791 0.839979 4.4791 1.49898C4.4791 2.15898 5.0161 2.69698 5.6771 2.69698C6.3381 2.69698 6.8751 2.15898 6.8751 1.49898C6.8751 0.839979 6.3381 0.302979 5.6771 0.302979ZM8.9585 1.49898C8.9585 0.839979 9.4955 0.302979 10.1565 0.302979C10.8175 0.302979 11.3545 0.839979 11.3545 1.49898C11.3545 2.15898 10.8175 2.69698 10.1565 2.69698C9.4955 2.69698 8.9585 2.15898 8.9585 1.49898Z" fill="#232E35"/>
</svg>
