<svg width="22" height="22" viewBox="0 0 22 22" fill="none" xmlns="http://www.w3.org/2000/svg">
<path d="M16.5 7.99891C15.6047 7.99853 14.7233 8.21997 13.9345 8.64344C13.8626 8.45386 13.7346 8.29068 13.5677 8.17555C13.4008 8.06043 13.2027 7.99882 13 7.99891H8.99997C8.86863 7.99883 8.73856 8.02465 8.6172 8.07488C8.49584 8.1251 8.38557 8.19876 8.2927 8.29164C8.19982 8.38451 8.12617 8.49478 8.07594 8.61614C8.02571 8.7375 7.9999 8.86757 7.99997 8.99891V20.9989C7.99989 21.1303 8.02571 21.2603 8.07594 21.3817C8.12616 21.503 8.19982 21.6133 8.29269 21.7062C8.38557 21.7991 8.49584 21.8727 8.6172 21.9229C8.73856 21.9732 8.86863 21.999 8.99997 21.9989H13C13.1313 21.999 13.2614 21.9732 13.3827 21.9229C13.5041 21.8727 13.6144 21.7991 13.7072 21.7062C13.8001 21.6133 13.8738 21.503 13.924 21.3817C13.9742 21.2603 14 21.1303 14 20.9989V15.4989C14 15.2337 14.1053 14.9793 14.2929 14.7918C14.4804 14.6043 14.7348 14.4989 15 14.4989C15.2652 14.4989 15.5195 14.6043 15.7071 14.7918C15.8946 14.9793 16 15.2337 16 15.4989V20.9989C15.9999 21.1303 16.0257 21.2603 16.0759 21.3817C16.1262 21.503 16.1998 21.6133 16.2927 21.7062C16.3856 21.7991 16.4958 21.8727 16.6172 21.9229C16.7386 21.9732 16.8686 21.999 17 21.9989H21C21.1313 21.999 21.2614 21.9732 21.3827 21.9229C21.5041 21.8727 21.6144 21.7991 21.7072 21.7062C21.8001 21.6133 21.8738 21.503 21.924 21.3817C21.9742 21.2603 22 21.1303 22 20.9989V13.4989C21.9982 12.0408 21.4181 10.6429 20.3871 9.61182C19.356 8.58077 17.9581 8.00072 16.5 7.99891V7.99891ZM20 19.9989H18V15.4989C18 14.7033 17.6839 13.9402 17.1213 13.3776C16.5587 12.815 15.7956 12.4989 15 12.4989C14.2043 12.4989 13.4413 12.815 12.8786 13.3776C12.316 13.9402 12 14.7033 12 15.4989V19.9989H9.99997V9.99891H12V10.702C12.0001 10.9092 12.0645 11.1113 12.1844 11.2803C12.3043 11.4493 12.4737 11.5769 12.6692 11.6455C12.8647 11.7141 13.0767 11.7203 13.2759 11.6633C13.4751 11.6062 13.6517 11.4887 13.7812 11.327C14.23 10.7571 14.8456 10.3415 15.542 10.1383C16.2384 9.93508 16.9808 9.95443 17.6657 10.1936C18.3506 10.4328 18.9437 10.8799 19.3621 11.4725C19.7806 12.065 20.0036 12.7735 20 13.4989V19.9989ZM5.99997 7.99891H1.99997C1.86863 7.99883 1.73856 8.02465 1.6172 8.07488C1.49584 8.1251 1.38557 8.19876 1.2927 8.29164C1.19982 8.38451 1.12617 8.49478 1.07594 8.61614C1.02571 8.7375 0.999896 8.86757 0.999971 8.99891V20.9989C0.999895 21.1303 1.02571 21.2603 1.07594 21.3817C1.12616 21.503 1.19982 21.6133 1.29269 21.7062C1.38557 21.7991 1.49584 21.8727 1.6172 21.9229C1.73856 21.9732 1.86863 21.999 1.99997 21.9989H5.99997C6.13131 21.999 6.26138 21.9732 6.38274 21.9229C6.5041 21.8727 6.61437 21.7991 6.70725 21.7062C6.80012 21.6133 6.87378 21.503 6.92401 21.3817C6.97423 21.2603 7.00005 21.1303 6.99997 20.9989V8.99891C7.00005 8.86757 6.97423 8.7375 6.924 8.61614C6.87377 8.49478 6.80012 8.38451 6.70724 8.29164C6.61437 8.19876 6.5041 8.1251 6.38274 8.07488C6.26138 8.02465 6.13131 7.99883 5.99997 7.99891V7.99891ZM4.99997 19.9989H2.99997V9.99891H4.99997V19.9989ZM4.01462 0.541909C3.57698 0.515713 3.13859 0.578806 2.7261 0.727354C2.31361 0.875901 1.93564 1.1068 1.61519 1.406C1.29473 1.70521 1.03849 2.06646 0.862029 2.46781C0.685573 2.86915 0.592594 3.3022 0.588747 3.7406C0.584901 4.17901 0.670268 4.61361 0.839656 5.01799C1.00904 5.42237 1.25891 5.78807 1.57407 6.09285C1.88922 6.39763 2.26308 6.63512 2.6729 6.79089C3.08272 6.94665 3.51994 7.01742 3.95797 6.99891H3.98629C4.42509 7.02497 4.86459 6.96129 5.27795 6.81176C5.6913 6.66223 6.06983 6.42998 6.39039 6.12922C6.71096 5.82845 6.96683 5.46548 7.14238 5.06249C7.31793 4.65949 7.40946 4.22494 7.41139 3.78537C7.41332 3.3458 7.3256 2.91046 7.15359 2.50594C6.98158 2.10142 6.7289 1.73622 6.41099 1.43266C6.09307 1.12909 5.7166 0.893534 5.30457 0.740381C4.89255 0.587229 4.45362 0.519696 4.01461 0.541909H4.01462ZM3.9863 4.99891H3.95797C3.78504 5.01991 3.60961 5.00369 3.44346 4.95134C3.27731 4.89899 3.12427 4.81171 2.99461 4.69537C2.86495 4.57903 2.76167 4.43631 2.69168 4.27678C2.6217 4.11726 2.58664 3.94461 2.58884 3.77042C2.58884 3.02432 3.14841 2.5419 4.01462 2.5419C4.18932 2.51861 4.36698 2.53303 4.53564 2.58418C4.70429 2.63534 4.86003 2.72204 4.99236 2.83845C5.12468 2.95486 5.23053 3.09828 5.30276 3.25904C5.37499 3.4198 5.41193 3.59418 5.4111 3.77042C5.4111 4.51651 4.85153 4.99891 3.9863 4.99891Z" fill="#232E35"/>
</svg>
