<svg width="20" height="10" viewBox="0 0 20 10" fill="none" xmlns="http://www.w3.org/2000/svg">
<path fill-rule="evenodd" clip-rule="evenodd" d="M5 1.75C3.20507 1.75 1.75 3.20507 1.75 5C1.75 6.79493 3.20507 8.25 5 8.25H7C7.41421 8.25 7.75 8.58579 7.75 9C7.75 9.41421 7.41421 9.75 7 9.75H5C2.37665 9.75 0.25 7.62335 0.25 5C0.25 2.37665 2.37665 0.25 5 0.25H7C7.41421 0.25 7.75 0.585786 7.75 1C7.75 1.41421 7.41421 1.75 7 1.75H5ZM12.25 1C12.25 0.585786 12.5858 0.25 13 0.25H15C17.6234 0.25 19.75 2.37665 19.75 5C19.75 7.62335 17.6234 9.75 15 9.75H13C12.5858 9.75 12.25 9.41421 12.25 9C12.25 8.58579 12.5858 8.25 13 8.25H15C16.7949 8.25 18.25 6.79493 18.25 5C18.25 3.20507 16.7949 1.75 15 1.75H13C12.5858 1.75 12.25 1.41421 12.25 1ZM5.25 5C5.25 4.58579 5.58579 4.25 6 4.25H14C14.4142 4.25 14.75 4.58579 14.75 5C14.75 5.41421 14.4142 5.75 14 5.75H6C5.58579 5.75 5.25 5.41421 5.25 5Z" fill="#656D72"/>
</svg>
