<svg style="display: none;" aria-hidden="true" xmlns="http://www.w3.org/2000/svg" xmlns:xlink="http://www.w3.org/1999/xlink"><symbol id="svg-Tilda_Icons_1ed_beaker" viewBox="0 0 100.4 100.4" xml:space="preserve"><style>.st0,.st1{fill:none;stroke:#2bace2;stroke-width:.3528;stroke-miterlimit:10}.st1{stroke:#ec2227}</style><path d="M84.2,92L72.7,69c-0.6-1.1-0.7-1.4-1-2L57.4,38.5V17.2h6.2c0.8,0,1.5-0.7,1.5-1.5V8c0-0.8-0.7-1.5-1.5-1.5H32.8	c-0.8,0-1.5,0.7-1.5,1.5v7.7c0,0.8,0.7,1.5,1.5,1.5H39v21.2L24.7,67c-0.3,0.6-0.5,1.1-1,2L12.2,92c-0.2,0.5-0.2,1,0.1,1.5	s0.8,0.7,1.3,0.7h69.3c0.5,0,1-0.3,1.3-0.7S84.4,92.5,84.2,92z M41.8,39.5c0.1-0.2,0.2-0.4,0.2-0.7V15.7c0-0.8-0.7-1.5-1.5-1.5h-6.2	V9.5h27.8v4.7h-6.2c-0.8,0-1.5,0.7-1.5,1.5v23.1c0,0.2,0.1,0.5,0.2,0.7l14.1,28.1c-0.5,0.3-0.8,0.6-1.2,0.8c-0.6,0.5-1,0.8-2,0.8	s-1.3-0.3-2-0.8c-0.8-0.6-1.9-1.5-3.8-1.5c-2,0-3,0.9-3.8,1.5c-0.6,0.5-1,0.8-1.9,0.8c-0.9,0-1.3-0.3-1.9-0.8	c-0.8-0.6-1.9-1.5-3.8-1.5c-2,0-3,0.9-3.8,1.5c-0.6,0.5-1,0.8-1.9,0.8s-1.3-0.3-1.9-0.8c-0.8-0.6-1.9-1.5-3.8-1.5s-3,0.9-3.8,1.5	c-0.6,0.5-1,0.8-1.9,0.8s-1.3-0.3-1.9-0.8c-0.3-0.3-0.7-0.6-1.2-0.8L41.8,39.5z M16,91.2l10.4-20.9c0.2,0.1,0.4,0.3,0.6,0.5	c0.8,0.6,1.9,1.5,3.8,1.5c2,0,3-0.9,3.8-1.5c0.6-0.5,1-0.8,1.9-0.8s1.3,0.3,1.9,0.8c0.8,0.6,1.9,1.5,3.8,1.5s3-0.9,3.8-1.5	c0.6-0.5,1-0.8,1.9-0.8c0.9,0,1.3,0.3,1.9,0.8c0.8,0.6,1.9,1.5,3.8,1.5c2,0,3-0.9,3.8-1.5c0.6-0.5,1-0.8,1.9-0.8	c0.9,0,1.3,0.3,2,0.8c0.8,0.6,1.9,1.5,3.8,1.5s3-0.9,3.8-1.5c0.2-0.2,0.4-0.3,0.6-0.5l10.4,20.9H16z"/></symbol><symbol viewBox="0 0 100.4 100.4" id="svg-Tilda_Icons_1ed_book"><path d="M92.9,60.4l-7.4-5v-15l7.4-4.9c0.4-0.3,0.7-0.7,0.7-1.2c0-0.5-0.3-1-0.7-1.2L54.8,7.5c-0.5-0.3-1.2-0.3-1.7,0L6.1,38.9 c-0.2,0.1-0.3,0.2-0.4,0.4c0,0,0,0,0,0.1c-0.2,0.3-0.2,0.5-0.2,0.8v27.5c0,0.5,0.3,1,0.7,1.2l38.1,25.4c0.3,0.2,0.5,0.3,0.8,0.3 c0.3,0,0.6-0.1,0.8-0.3l47.1-31.4c0.4-0.3,0.7-0.7,0.7-1.2C93.6,61.1,93.3,60.6,92.9,60.4z M54,10.6l35.4,23.6L83.6,38 c-0.3,0.1-0.6,0.3-0.8,0.5L45,63.7L16.6,44.8c-0.1-0.1-0.2-0.1-0.2-0.2l-6.8-4.5L54,10.6z M17.1,48.8l27,18c0.5,0.3,1.2,0.3,1.7,0 l36.7-24.5v12.3L45.2,79.2l-28.1-18L17.1,48.8L17.1,48.8z M45,91.2L8.4,66.8V43l5.8,3.8V62c0,0.5,0.3,1,0.7,1.3l29.6,19 c0.2,0.2,0.5,0.2,0.8,0.2c0.3,0,0.6-0.1,0.8-0.2l37.4-24.6l5.9,4L45,91.2z"/><path d="M47.5,24.3l17.8,12.2c0.3,0.2,0.6,0.3,0.8,0.3c0.5,0,0.9-0.2,1.2-0.7c0.5-0.7,0.3-1.6-0.4-2.1L49.2,21.8 c-0.7-0.5-1.6-0.3-2.1,0.4C46.6,22.9,46.8,23.8,47.5,24.3z"/></symbol><symbol viewBox="0 0 100 100" id="svg-Tilda_Icons_1ed_brain"><path d="M93.998 45.312c0-3.676-1.659-7.121-4.486-9.414.123-.587.184-1.151.184-1.706 0-4.579-3.386-8.382-7.785-9.037.101-.526.149-1.042.149-1.556 0-4.875-3.842-8.858-8.655-9.111-.079-.013-.159-.024-.242-.024-.04 0-.079.005-.12.006-.04-.001-.079-.006-.12-.006-.458 0-.919.041-1.406.126-.846-4.485-4.753-7.825-9.437-7.825-5.311 0-9.632 4.321-9.632 9.633v65.918c0 6.723 5.469 12.191 12.191 12.191 4.46 0 8.508-2.413 10.646-6.246.479.104.939.168 1.401.198 2.903.185 5.73-.766 7.926-2.693 2.196-1.927 3.51-4.594 3.7-7.51.079-1.215-.057-2.434-.403-3.638 3.796-2.691 6.027-6.952 6.027-11.621 0-3.385-1.219-6.635-3.445-9.224C92.731 51.505 93.998 48.471 93.998 45.312zM90.938 62.999c0 3.484-1.582 6.68-4.295 8.819-2.008-3.196-5.57-5.237-9.427-5.237-.828 0-1.5.672-1.5 1.5s.672 1.5 1.5 1.5c3.341 0 6.384 2.093 7.582 5.208.41 1.088.592 2.189.521 3.274-.138 2.116-1.091 4.051-2.685 5.449-1.594 1.399-3.641 2.094-5.752 1.954-.594-.039-1.208-.167-1.933-.402-.74-.242-1.541.124-1.846.84-1.445 3.404-4.768 5.604-8.465 5.604-5.068 0-9.191-4.123-9.191-9.191V16.399c0-3.657 2.975-6.633 6.632-6.633 3.398 0 6.194 2.562 6.558 5.908-2.751 1.576-4.612 4.535-4.612 7.926 0 .829.672 1.5 1.5 1.5s1.5-.671 1.5-1.5c0-3.343 2.689-6.065 6.016-6.13 3.327.065 6.016 2.787 6.016 6.129 0 .622-.117 1.266-.359 1.971-.057.166-.084.34-.081.515.001.041.003.079.007.115-.006.021-.01.035-.01.035-.118.465-.006.959.301 1.328.307.369.765.569 1.251.538.104-.007.208-.02.392-.046 3.383 0 6.136 2.753 6.136 6.136 0 .572-.103 1.159-.322 1.849-.203.635.038 1.328.591 1.7 2.434 1.639 3.909 4.329 4.014 7.242 0 .004-.001.008-.001.012 0 5.03-4.092 9.123-9.122 9.123s-9.123-4.093-9.123-9.123c0-.829-.672-1.5-1.5-1.5s-1.5.671-1.5 1.5c0 6.685 5.438 12.123 12.123 12.123 2.228 0 4.31-.615 6.106-1.668C89.88 57.539 90.938 60.212 90.938 62.999zM38.179 6.766c-4.684 0-8.59 3.34-9.435 7.825-.488-.085-.949-.126-1.407-.126-.04 0-.079.005-.12.006-.04-.001-.079-.006-.12-.006-.083 0-.163.011-.242.024-4.813.253-8.654 4.236-8.654 9.111 0 .514.049 1.03.149 1.556-4.399.655-7.785 4.458-7.785 9.037 0 .554.061 1.118.184 1.706-2.827 2.293-4.486 5.738-4.486 9.414 0 3.159 1.266 6.193 3.505 8.463-2.227 2.589-3.446 5.839-3.446 9.224 0 4.669 2.231 8.929 6.027 11.621-.347 1.204-.482 2.423-.402 3.639.19 2.915 1.503 5.582 3.699 7.509 2.196 1.928 5.015 2.879 7.926 2.693.455-.03.919-.096 1.4-.199 2.138 3.834 6.186 6.247 10.646 6.247 6.722 0 12.191-5.469 12.191-12.191V16.399C47.811 11.087 43.49 6.766 38.179 6.766zM44.811 82.317c0 5.068-4.123 9.191-9.191 9.191-3.697 0-7.02-2.2-8.464-5.604-.241-.567-.793-.914-1.381-.914-.154 0-.311.023-.465.074-.724.235-1.338.363-1.933.402-2.119.139-4.158-.556-5.751-1.954-1.594-1.398-2.547-3.333-2.685-5.449-.076-1.16.125-2.336.598-3.495.007-.017.005-.036.011-.053 1.342-3.056 4.225-4.953 7.597-4.953.829 0 1.5-.672 1.5-1.5s-.671-1.5-1.5-1.5c-3.938 0-7.501 2.007-9.548 5.239-2.701-2.139-4.277-5.327-4.277-8.802 0-2.787 1.06-5.46 2.978-7.549 1.796 1.053 3.879 1.668 6.107 1.668 6.685 0 12.123-5.438 12.123-12.123 0-.829-.671-1.5-1.5-1.5s-1.5.671-1.5 1.5c0 5.03-4.092 9.123-9.123 9.123s-9.123-4.093-9.123-9.123c0-.002-.001-.004-.001-.006.103-2.915 1.578-5.607 4.013-7.248.553-.372.793-1.064.591-1.699-.22-.691-.322-1.278-.322-1.85 0-3.376 2.741-6.125 6.195-6.125.007 0 .015 0 .022 0 .103.014.206.027.311.034.485.03.948-.171 1.254-.542.307-.372.417-.868.294-1.334 0-.001-.003-.014-.008-.031.003-.035.006-.067.007-.095.005-.18-.022-.359-.081-.529-.242-.707-.359-1.352-.359-1.972 0-3.342 2.688-6.065 6.016-6.129 3.328.065 6.016 2.787 6.016 6.13 0 .829.671 1.5 1.5 1.5s1.5-.671 1.5-1.5c0-3.391-1.861-6.35-4.612-7.926.364-3.346 3.16-5.908 6.558-5.908 3.657 0 6.632 2.976 6.632 6.633V82.317z"/></symbol><symbol viewBox="0 0 100.353 100.353" id="svg-Tilda_Icons_1ed_calendar"><path d="M32.286 42.441h-9.762c-.829 0-1.5.671-1.5 1.5v9.762c0 .828.671 1.5 1.5 1.5h9.762c.829 0 1.5-.672 1.5-1.5v-9.762C33.786 43.113 33.115 42.441 32.286 42.441zM30.786 52.203h-6.762v-6.762h6.762V52.203zM55.054 42.441h-9.762c-.829 0-1.5.671-1.5 1.5v9.762c0 .828.671 1.5 1.5 1.5h9.762c.828 0 1.5-.672 1.5-1.5v-9.762C56.554 43.113 55.882 42.441 55.054 42.441zM53.554 52.203h-6.762v-6.762h6.762V52.203zM77.12 42.441h-9.762c-.828 0-1.5.671-1.5 1.5v9.762c0 .828.672 1.5 1.5 1.5h9.762c.828 0 1.5-.672 1.5-1.5v-9.762C78.62 43.113 77.948 42.441 77.12 42.441zM75.62 52.203h-6.762v-6.762h6.762V52.203zM32.286 64.677h-9.762c-.829 0-1.5.672-1.5 1.5v9.762c0 .828.671 1.5 1.5 1.5h9.762c.829 0 1.5-.672 1.5-1.5v-9.762C33.786 65.349 33.115 64.677 32.286 64.677zM30.786 74.439h-6.762v-6.762h6.762V74.439zM55.054 64.677h-9.762c-.829 0-1.5.672-1.5 1.5v9.762c0 .828.671 1.5 1.5 1.5h9.762c.828 0 1.5-.672 1.5-1.5v-9.762C56.554 65.349 55.882 64.677 55.054 64.677zM53.554 74.439h-6.762v-6.762h6.762V74.439zM77.12 64.677h-9.762c-.828 0-1.5.672-1.5 1.5v9.762c0 .828.672 1.5 1.5 1.5h9.762c.828 0 1.5-.672 1.5-1.5v-9.762C78.62 65.349 77.948 64.677 77.12 64.677zM75.62 74.439h-6.762v-6.762h6.762V74.439z"/><path d="M89,13.394h-9.907c-0.013,0-0.024,0.003-0.037,0.004V11.4c0-3.268-2.658-5.926-5.926-5.926s-5.926,2.659-5.926,5.926v1.994 H56.041V11.4c0-3.268-2.658-5.926-5.926-5.926s-5.926,2.659-5.926,5.926v1.994H33.025V11.4c0-3.268-2.658-5.926-5.926-5.926 s-5.926,2.659-5.926,5.926v1.995c-0.005,0-0.01-0.001-0.015-0.001h-9.905c-0.829,0-1.5,0.671-1.5,1.5V92.64 c0,0.828,0.671,1.5,1.5,1.5H89c0.828,0,1.5-0.672,1.5-1.5V14.894C90.5,14.065,89.828,13.394,89,13.394z M70.204,11.4 c0-1.614,1.312-2.926,2.926-2.926s2.926,1.312,2.926,2.926v8.277c0,1.613-1.312,2.926-2.926,2.926s-2.926-1.312-2.926-2.926V11.4z M50.115,8.474c1.613,0,2.926,1.312,2.926,2.926v8.277c0,1.613-1.312,2.926-2.926,2.926c-1.614,0-2.926-1.312-2.926-2.926v-4.643 c0.004-0.047,0.014-0.092,0.014-0.141s-0.01-0.094-0.014-0.141V11.4C47.189,9.786,48.501,8.474,50.115,8.474z M24.173,11.4 c0-1.614,1.312-2.926,2.926-2.926c1.613,0,2.926,1.312,2.926,2.926v8.277c0,1.613-1.312,2.926-2.926,2.926 c-1.614,0-2.926-1.312-2.926-2.926V11.4z M87.5,91.14H12.753V16.394h8.405c0.005,0,0.01-0.001,0.015-0.001v3.285 c0,3.268,2.659,5.926,5.926,5.926s5.926-2.658,5.926-5.926v-3.283h11.164v3.283c0,3.268,2.659,5.926,5.926,5.926 s5.926-2.658,5.926-5.926v-3.283h11.163v3.283c0,3.268,2.658,5.926,5.926,5.926s5.926-2.658,5.926-5.926V16.39 c0.013,0,0.024,0.004,0.037,0.004H87.5V91.14z"/></symbol><symbol viewBox="0 0 100.4 100.4" id="svg-Tilda_Icons_1ed_cup"><path d="M88.5,15.3c-0.3-0.3-0.7-0.5-1.1-0.5H72.2v-7c0-0.8-0.7-1.5-1.5-1.5H28c-0.8,0-1.5,0.7-1.5,1.5v7H10.9 c-0.4,0-0.8,0.2-1.1,0.5c-0.3,0.3-0.4,0.7-0.4,1.1c0,0.3,0.3,6.7,2.6,14.1c3.2,9.9,8.6,16.9,15.8,20.1c2.4,8,7.9,14.3,14.8,16.8 v0.3c0,8.3-6.3,14.9-14.4,14.9c-0.8,0-1.5,0.7-1.5,1.5v8.5c0,0.8,0.7,1.5,1.5,1.5h42.5c0.8,0,1.5-0.7,1.5-1.5v-8.5 c0-0.8-0.7-1.5-1.5-1.5c-8.2,0-14.9-6.7-14.9-14.9v-0.2C63,65,68.6,58.6,71,50.4c6.9-3.3,12.2-10.2,15.3-19.9 c2.4-7.4,2.6-13.9,2.6-14.1C89,16,88.8,15.6,88.5,15.3z M12.5,17.8h14v24c0,1.7,0.1,3.3,0.4,4.9C15.5,39.9,13,23,12.5,17.8z M69.2,85.5V91H29.7v-5.5c8.8-0.7,15.6-8,15.8-17.3c1.2,0.2,2.5,0.4,3.8,0.4c1.2,0,2.4-0.1,3.5-0.3C53.2,77.4,60.3,84.8,69.2,85.5z M53.3,65.2c-1.3,0.3-2.6,0.5-3.9,0.5c-1.5,0-3-0.2-4.4-0.6c-0.3-0.1-0.8-0.3-1-0.3c-8.3-2.8-14.5-12-14.5-22.9V9.4h39.7v6v1.9 v24.6c0,10.9-6.2,20.1-14.6,22.9 M71.9,46.5c0.2-1.5,0.4-3.1,0.4-4.7v-24h13.6C85.4,23,83,39.4,71.9,46.5z"/><path d="M63.8,27.3l-8.2-1.2l-3.7-7.5c-0.4-0.8-1.3-1.4-2.2-1.4c0,0,0,0,0,0c-0.9,0-1.8,0.5-2.2,1.4l-3.7,7.5l-8.2,1.2 c-0.9,0.1-1.7,0.8-2,1.7c-0.3,0.9-0.1,1.9,0.6,2.5l6,5.8l-1.4,8.2c-0.2,0.9,0.2,1.8,1,2.4c0.4,0.3,0.9,0.5,1.5,0.5 c0.4,0,0.8-0.1,1.1-0.3l7.6-3.8l7.2,3.8c0.8,0.4,1.8,0.4,2.6-0.2c0.8-0.6,1.1-1.5,1-2.4l-1.4-8.2l6-5.8c0.7-0.7,0.9-1.6,0.6-2.5 C65.5,28.1,64.8,27.4,63.8,27.3z M56.6,35.7c-0.4,0.3-0.5,0.8-0.4,1.3l1.4,7.9l-6.9-3.6c-0.4-0.2-0.9-0.2-1.4,0L41.9,45l1.4-8 c0.1-0.5-0.1-1-0.4-1.3l-5.7-5.6l7.9-1.2c0.5-0.1,0.9-0.4,1.1-0.8l3.5-7.2l3.5,7.2c0.2,0.4,0.6,0.8,1.1,0.8l7.9,1.2L56.6,35.7z"/></symbol><symbol viewBox="0 0 100 100" id="svg-Tilda_Icons_1ed_discount"><path d="M64.1 38.1l-30.2 24c-.6.5-.8 1.5-.2 2.1.3.4.7.6 1.2.6.3 0 .7-.1.9-.3l30.2-24c.6-.5.8-1.5.2-2.1C65.7 37.7 64.8 37.6 64.1 38.1zM42 48.8c.4 0 .8 0 1.2-.1 4.1-.6 7-4.5 6.3-8.7-.3-2-1.4-3.8-3-5-1.6-1.2-3.6-1.7-5.6-1.4-2 .3-3.8 1.4-5 3-1.2 1.6-1.7 3.6-1.4 5.6C35.1 46.1 38.4 48.8 42 48.8zM41.3 36.7c.2 0 .5-.1.7-.1 2.2 0 4.2 1.6 4.5 3.9.4 2.5-1.3 4.8-3.8 5.2-2.5.4-4.8-1.3-5.2-3.8C37.1 39.4 38.9 37.1 41.3 36.7zM58 53.8c-4.2 0-7.6 3.4-7.6 7.6 0 4.2 3.4 7.6 7.6 7.6s7.6-3.4 7.6-7.6C65.5 57.2 62.1 53.8 58 53.8zM58 65.9c-2.5 0-4.6-2.1-4.6-4.6 0-2.5 2.1-4.6 4.6-4.6s4.6 2.1 4.6 4.6C62.5 63.9 60.5 65.9 58 65.9z"/><path d="M95.4,50.3c0-0.1,0.1-0.3,0.1-0.4c0-4.3-4.5-6.5-8.4-8.4c-2.8-1.4-5.8-2.9-6.6-4.7c-0.8-1.9,0.3-5,1.4-7.9 c1.5-4.1,3-8.3,0.2-11.1c-2.8-2.8-6.8-1.8-10.8-0.9c-2.8,0.6-5.7,1.3-7.6,0.5c-1.9-0.8-3.5-3.3-5-5.7c-2.2-3.4-4.6-7.3-8.8-7.3 c-4.2,0-6.6,3.9-8.7,7.4c-1.5,2.5-3,5-4.9,5.8c-1.9,0.8-4.9,0.1-7.7-0.6c-4-1-8.1-2-10.8,0.7c-2.8,2.8-1.4,7-0.1,11.1 c1,3,1.9,6,1.1,8c-0.8,1.9-3.6,3.3-6.3,4.7c-3.8,2-8.1,4.2-8.1,8.4c0,0.1,0,0.3,0.1,0.4c0,0.1-0.1,0.3-0.1,0.4 c0,4.2,4.3,6.5,8.1,8.4c2.7,1.4,5.5,2.8,6.3,4.7c0.8,1.9-0.2,5-1.1,8c-1.3,4.1-2.7,8.3,0.1,11.1c2.8,2.8,6.9,1.7,10.8,0.7 c2.8-0.7,5.8-1.4,7.7-0.6c1.9,0.8,3.4,3.3,4.9,5.8c2.1,3.5,4.5,7.4,8.7,7.4c4.2,0,6.7-3.9,8.8-7.3c1.5-2.4,3.1-4.9,5-5.7 c2-0.8,4.8-0.2,7.6,0.5c3.9,0.9,8,1.9,10.8-0.9c2.8-2.8,1.3-7-0.2-11.1c-1.1-3-2.2-6-1.4-7.9c0.8-1.9,3.7-3.3,6.6-4.7 c3.9-2,8.4-4.2,8.4-8.4C95.5,50.5,95.4,50.4,95.4,50.3z M85.7,56.4c-3.3,1.7-6.8,3.4-8,6.3c-1.3,3,0.1,6.6,1.3,10.1 c1.2,3.3,2.4,6.5,0.9,7.9c-1.6,1.6-4.7,0.9-8,0.1c-3.3-0.8-6.6-1.5-9.5-0.3c-2.8,1.2-4.6,4-6.3,6.8c-1.9,3-3.7,5.9-6.3,5.9 c-2.5,0-4.3-2.9-6.2-6c-1.7-2.9-3.5-5.8-6.3-7c-2.9-1.2-6.3-0.4-9.6,0.5c-3.3,0.8-6.4,1.6-8,0.1c-1.5-1.5-0.5-4.7,0.6-8 c1.1-3.5,2.3-7.1,1-10c-1.2-2.9-4.5-4.6-7.7-6.2c-3.3-1.7-6.4-3.3-6.4-5.8c0-0.1,0-0.3-0.1-0.4c0-0.1,0.1-0.3,0.1-0.4 c0-2.4,3.1-4,6.4-5.8c3.2-1.6,6.5-3.3,7.7-6.2c1.2-3,0.1-6.6-1-10c-1.1-3.4-2.1-6.6-0.6-8c1.6-1.6,4.7-0.8,8,0.1 c3.3,0.8,6.7,1.7,9.6,0.5c2.8-1.2,4.6-4.1,6.3-7c1.9-3.1,3.6-6,6.2-6c2.6,0,4.4,2.9,6.3,5.9c1.8,2.8,3.6,5.6,6.3,6.8 c2.9,1.2,6.2,0.4,9.5-0.3c3.3-0.8,6.4-1.5,8,0.1c1.5,1.4,0.3,4.6-0.9,7.9c-1.3,3.5-2.6,7.1-1.3,10.1c1.2,2.9,4.7,4.6,8,6.3 c3.5,1.7,6.7,3.4,6.7,5.8c0,0.1,0,0.3,0.1,0.4c0,0.1-0.1,0.3-0.1,0.4C92.5,53,89.2,54.7,85.7,56.4z"/></symbol><symbol viewBox="0 0 100.4 100.4" id="svg-Tilda_Icons_1ed_flipchart"><path d="M88.6,25.1V12.9c0-0.8-0.7-1.5-1.5-1.5H50.5V4.1c0-0.8-0.7-1.5-1.5-1.5s-1.5,0.7-1.5,1.5v7.3H11c-0.8,0-1.5,0.7-1.5,1.5	v12.2c0,0.4,0,1.3,0,2V63c0,0.8,0.7,1.5,1.5,1.5h23.2l-7.7,32.3c-0.2,0.8,0.3,1.6,1.1,1.8c0.1,0,0.2,0,0.4,0c0.7,0,1.3-0.5,1.5-1.1	l7.9-33h10.3v24.2c0,0.8,0.7,1.5,1.5,1.5s1.5-0.7,1.5-1.5V64.5h10l8.2,33c0.2,0.7,0.8,1.1,1.5,1.1c0.1,0,0.2,0,0.4,0	c0.8-0.2,1.3-1,1.1-1.8l-8-32.3h23.4c0.8,0,1.5-0.7,1.5-1.5C88.8,63,88.6,25.6,88.6,25.1z M85.6,14.4v10.2H12.5V14.4H85.6z M12.5,61.5V27.6h73.1v33.9H12.5z"/></symbol><symbol viewBox="0 0 100.4 100.4" id="svg-Tilda_Icons_1ed_glasses"><path d="M92.6,67.5c0-0.1,0-0.1,0-0.2V30c0-9-7.3-16.2-16.2-16.2H63.1c-0.8,0-1.5,0.7-1.5,1.5s0.7,1.5,1.5,1.5h13.3	c7.3,0,13.2,5.9,13.2,13.2v30.9c-2.3-3.1-5.7-5.3-9.5-6.3c-4.4-1.1-8.9-0.4-12.8,2c-3.9,2.3-6.6,6-7.6,10.4	c-0.2,0.8-0.3,1.7-0.4,2.5H40.7c-0.2-2.5-1-5-2.4-7.3c-2.3-3.9-6-6.6-10.4-7.6c-4.4-1.1-8.9-0.4-12.8,2c-1.8,1.1-3.4,2.6-4.7,4.2V30	c0-7.3,5.9-13.2,13.2-13.2H37c0.8,0,1.5-0.7,1.5-1.5s-0.7-1.5-1.5-1.5H23.7c-9,0-16.2,7.3-16.2,16.2v37.2c-2.1,9,3.5,18,12.4,20.2	c1.3,0.3,2.7,0.5,4,0.5c7.6,0,14.5-5.2,16.4-12.9c0.2-0.8,0.3-1.7,0.4-2.5h18.7c0.2,2.5,1,5,2.4,7.3c2.3,3.9,6,6.6,10.4,7.6	c1.3,0.3,2.7,0.5,4,0.5c7.6,0,14.5-5.2,16.4-12.9C93.1,72.5,93.2,69.9,92.6,67.5z M37.4,74.3c-1.8,7.4-9.3,12-16.8,10.2	c-7.4-1.8-12-9.3-10.2-16.8c0.9-3.6,3.1-6.6,6.3-8.6c2.2-1.3,4.7-2,7.2-2c1.1,0,2.2,0.1,3.3,0.4c3.6,0.9,6.6,3.1,8.6,6.3	C37.7,66.9,38.3,70.7,37.4,74.3z M89.6,74.3c-1.8,7.4-9.3,12-16.8,10.2c-3.6-0.9-6.6-3.1-8.6-6.3c-1.3-2.2-2-4.6-2-7.1	c0,0,0-0.1,0-0.1c0,0,0-0.1,0-0.1c0-1.1,0.1-2.1,0.4-3.2c0.9-3.6,3.1-6.6,6.3-8.6c2.2-1.3,4.7-2,7.2-2c1.1,0,2.2,0.1,3.3,0.4	c3.6,0.9,6.6,3.1,8.6,6.3C89.9,66.9,90.5,70.7,89.6,74.3z"/></symbol><symbol viewBox="0 0 100.4 100.4" id="svg-Tilda_Icons_1ed_group"><path d="M76.9,34v-2.7c3.4-2,5.6-5.7,5.6-9.7v-4.8c0-6.2-5-11.2-11.2-11.2S60,10.6,60,16.8v4.8c0,3.9,2,7.5,5.4,9.5v2.9	c-1.5,0.4-2.9,1-4.3,1.8c-2.2-5.1-7.3-8.7-13.2-8.7c-5.8,0-10.7,3.4-13,8.4c-1.3-0.6-2.6-1.2-3.9-1.5v-2.7c3.4-2,5.6-5.7,5.6-9.7	v-4.8c0-6.2-5-11.2-11.2-11.2s-11.2,5-11.2,11.2v4.8c0,3.9,2,7.5,5.4,9.5v2.9c-9,2.6-15.1,10.7-15.1,20.1c0,0.8,0.7,1.5,1.5,1.5	h29.6c0.1,0,0.2,0,0.3,0c1.2,1.9,2.9,3.5,4.9,4.7v4.5c-11.9,3.2-20,13.9-20,26.3c0,0.8,0.7,1.5,1.5,1.5h51.5c0.8,0,1.5-0.7,1.5-1.5	c0-12.3-8.5-23.2-20.3-26.3v-4.3c2.1-1.2,3.8-2.8,5.1-4.8h30.7c0.8,0,1.5-0.7,1.5-1.5C92.2,44.8,85.8,36.5,76.9,34z M7.5,52.7	c0.6-7.8,6.2-14.2,13.9-16c0.7-0.2,1.2-0.8,1.2-1.5v-5c0-0.6-0.3-1.1-0.8-1.3c-2.8-1.4-4.6-4.2-4.6-7.3v-4.8c0-4.5,3.7-8.2,8.2-8.2	s8.2,3.7,8.2,8.2v4.8c0,3.1-1.9,6-4.7,7.4c-0.5,0.2-0.9,0.8-0.9,1.4v4.8c0,0.7,0.5,1.3,1.2,1.5c1.7,0.4,3.3,1,4.8,1.8	c-0.2,1-0.3,2-0.3,3.1V48c0,1.6,0.3,3.2,0.8,4.7L7.5,52.7L7.5,52.7z M52.8,58.2c-0.5,0.2-0.9,0.8-0.9,1.4v6.4c0,0.7,0.5,1.3,1.2,1.5	c10.6,2.3,18.4,11.5,19.1,22.2H23.8c0.6-10.7,8.2-19.7,18.8-22.1c0.7-0.2,1.2-0.8,1.2-1.5v-6.6c0-0.6-0.3-1.1-0.8-1.3	c-3.9-1.9-6.3-5.8-6.3-10.1v-6.4c0-6.3,5.1-11.3,11.3-11.3s11.3,5.1,11.3,11.3V48C59.3,52.3,56.8,56.3,52.8,58.2z M61.5,52.7	c0.5-1.5,0.8-3.1,0.8-4.7v-6.4c0-0.9-0.1-1.9-0.3-2.7c1.6-1,3.4-1.7,5.2-2.1c0.7-0.2,1.2-0.8,1.2-1.5v-5c0-0.6-0.3-1.1-0.8-1.3	c-2.8-1.4-4.6-4.2-4.6-7.3v-4.8c0-4.5,3.7-8.2,8.2-8.2c4.5,0,8.2,3.7,8.2,8.2v4.8c0,3.1-1.9,6-4.7,7.4c-0.5,0.2-0.9,0.8-0.9,1.4v4.8	c0,0.7,0.5,1.3,1.2,1.5c7.7,1.7,13.4,8.3,14.1,16L61.5,52.7L61.5,52.7z"/></symbol><symbol viewBox="0 0 100.353 100.353" id="svg-Tilda_Icons_1ed_hat"><path d="M90.54,33.012L49.476,5.636c-0.504-0.336-1.16-0.336-1.664,0L6.748,33.012C6.331,33.29,6.08,33.759,6.08,34.26	s0.25,0.97,0.668,1.248l6.237,4.158v21.913c0,0.511,0.26,0.987,0.69,1.263l34.399,22.053c0.247,0.158,0.528,0.237,0.81,0.237	c0.295,0,0.591-0.087,0.845-0.261l17.947-12.244v8.538L60.99,94.537c-0.232,0.465-0.207,1.018,0.065,1.46	c0.273,0.441,0.757,0.711,1.276,0.711H76.02c0.52,0,1.003-0.27,1.276-0.711c0.272-0.442,0.298-0.995,0.065-1.46l-6.686-13.372V70.58	l11.377-7.762c0.409-0.279,0.654-0.743,0.654-1.239V40.73l7.833-5.222c0.417-0.278,0.668-0.747,0.668-1.248	S90.957,33.29,90.54,33.012z M64.759,93.708l4.417-8.834l4.417,8.834H64.759z M48.858,81.834L15.985,60.759V41.666l31.827,21.219	c0.252,0.168,0.542,0.252,0.832,0.252s0.58-0.084,0.832-0.252l18.2-12.134v18.244L48.858,81.834z M79.707,60.787l-9.031,6.162	V48.751l9.031-6.021V60.787z M80.686,38.472c-0.221,0.082-0.416,0.213-0.574,0.383l-10.936,7.291l-19.7-13.134	c-0.691-0.46-1.621-0.273-2.08,0.416c-0.459,0.689-0.273,1.621,0.416,2.08l18.66,12.44L48.644,59.834L10.284,34.26l38.36-25.573	l38.36,25.573L80.686,38.472z"/></symbol><symbol viewBox="0 0 100.4 100.4" id="svg-Tilda_Icons_1ed_hourglass"><path d="M76.9,23.1l1.1-4.2h4.8c0.9,0,1.6-0.7,1.6-1.6v-7c0-0.9-0.7-1.6-1.6-1.6H17.5c-0.9,0-1.6,0.7-1.6,1.6v7	c0,0.9,0.7,1.6,1.6,1.6h4.8l1.1,4.2C26.2,34.7,34.5,43.9,45.7,48v3.8c-11.1,4.1-19.4,13.3-22.3,24.9L22,81.9h-4.5	c-0.9,0-1.6,0.7-1.6,1.6v7c0,0.9,0.7,1.6,1.6,1.6h65.3c0.9,0,1.6-0.7,1.6-1.6v-7c0-0.9-0.7-1.6-1.6-1.6h-4.5l-1.3-5.3	C74,65.1,65.7,55.9,54.6,51.8V48C65.7,43.9,74,34.7,76.9,23.1z M19.1,11.9h62v3.7h-62V11.9z M81.2,88.9h-62v-3.7h62V88.9z M52.6,54.3C63.3,57.8,71.3,66.5,74,77.4l1.1,4.5h-50l1.1-4.5C29,66.5,37,57.8,47.6,54.3c0.6-0.2,1-0.8,1-1.4v-5.9	c0-0.6-0.4-1.2-1-1.4C37,41.9,29,33.3,26.3,22.4l-0.9-3.5h49.5L74,22.4c-2.7,10.9-10.7,19.5-21.4,23.1c-0.6,0.2-1,0.8-1,1.4v5.9	C51.6,53.5,52,54.1,52.6,54.3z"/></symbol><symbol viewBox="0 0 100.353 100.352" id="svg-Tilda_Icons_1ed_lightbulb_14"><path d="M69.294,11.442c-6.788-5.594-15.724-7.82-24.512-6.109C32.951,7.636,23.449,17.623,21.675,29.62	c-1.447,9.79,2.031,19.567,9.304,26.155c3.277,2.968,5.254,7.243,5.568,12.039c0.006,0.087,0.023,0.171,0.042,0.254v15.039	c0,0.828,0.671,1.5,1.5,1.5h1.495c0.609,4.359,3.813,7.697,7.672,7.697h6.81c3.859,0,7.062-3.338,7.671-7.697h1.495	c0.828,0,1.5-0.672,1.5-1.5V67.828c0-0.003,0.001-0.006,0.001-0.01c0-4.462,2.026-8.771,5.706-12.133	c6.062-5.538,9.538-13.415,9.538-21.61C79.978,25.287,76.084,17.037,69.294,11.442z M45.357,39.91h-2.305	c-1.271,0-2.305-1.034-2.305-2.305s1.034-2.305,2.305-2.305s2.305,1.034,2.305,2.305V39.91z M55.966,37.605	c0-1.271,1.034-2.305,2.306-2.305c1.271,0,2.305,1.034,2.305,2.305s-1.034,2.305-2.305,2.305h-2.303L55.966,37.605z M55.063,69.211	h6.67v12.396H60.36c-0.003,0-0.006-0.001-0.01-0.001s-0.006,0.001-0.01,0.001H40.982c-0.003,0-0.006-0.001-0.01-0.001	s-0.006,0.001-0.01,0.001H39.59V69.211h14.366 M48.357,66.211V42.91h4.617l0.034,23.301H48.357z M54.066,89.304h-6.81	c-2.238,0-4.117-2.004-4.637-4.697h16.083C58.183,87.3,56.304,89.304,54.066,89.304z M68.416,53.471	c-3.872,3.537-6.164,8.013-6.593,12.74h-5.816L55.974,42.91h2.298c2.925,0,5.305-2.38,5.305-5.305c0-2.925-2.38-5.305-5.305-5.305	c-2.926,0-5.306,2.38-5.306,5.307l0.003,2.303h-4.612v-2.305c0-2.925-2.38-5.305-5.305-5.305c-2.925,0-5.305,2.38-5.305,5.305	c0,2.925,2.38,5.305,5.305,5.305h2.305v23.301h-5.972c-0.636-5.005-2.864-9.465-6.393-12.66c-6.528-5.914-9.65-14.696-8.35-23.493	c1.591-10.76,10.108-19.716,20.712-21.781c7.908-1.538,15.938,0.458,22.03,5.48c6.096,5.023,9.592,12.429,9.592,20.319	C76.978,41.43,73.857,48.5,68.416,53.471z"/></symbol><symbol viewBox="0 0 100.4 100.4" id="svg-Tilda_Icons_1ed_list"><path d="M79.1,10.1H63.2V3.3c0-0.8-0.7-1.5-1.5-1.5H38c-0.8,0-1.5,0.7-1.5,1.5v6.8H19.7c-3.5,0-6.3,2.8-6.3,6.3v75.4 c0,3.5,2.8,6.3,6.3,6.3h59.5c3.5,0,6.3-2.8,6.3-6.3V16.4C85.4,12.9,82.6,10.1,79.1,10.1z M38,29.5h23.7c0.8,0,1.5-0.7,1.5-1.5v-6.5 h10.5v64.7H25.1V21.6h11.4V28C36.5,28.9,37.2,29.5,38,29.5z M60.2,4.8V20c0,0,0,0,0,0s0,0,0,0v6.5H39.5v-6.5c0,0,0,0,0,0s0,0,0,0 v-8.5c0,0,0,0,0,0s0,0,0,0V4.8L60.2,4.8L60.2,4.8z M82.4,91.7c0,1.8-1.5,3.3-3.3,3.3H19.7c-1.8,0-3.3-1.5-3.3-3.3V16.4 c0-1.8,1.5-3.3,3.3-3.3h16.8v5.5H23.6c-0.8,0-1.5,0.7-1.5,1.5v67.7c0,0.8,0.7,1.5,1.5,1.5h51.6c0.8,0,1.5-0.7,1.5-1.5V20.1 c0-0.8-0.7-1.5-1.5-1.5h-12v-5.5h15.9c1.8,0,3.3,1.5,3.3,3.3V91.7z"/><path d="M28.8 46.4c0 .8.7 1.5 1.5 1.5h38.5c.8 0 1.5-.7 1.5-1.5s-.7-1.5-1.5-1.5H30.3C29.5 44.9 28.8 45.6 28.8 46.4zM68.8 55.4H30.3c-.8 0-1.5.7-1.5 1.5s.7 1.5 1.5 1.5h38.5c.8 0 1.5-.7 1.5-1.5S69.6 55.4 68.8 55.4zM68.8 66.4H30.3c-.8 0-1.5.7-1.5 1.5 0 .8.7 1.5 1.5 1.5h38.5c.8 0 1.5-.7 1.5-1.5C70.3 67.1 69.6 66.4 68.8 66.4z"/></symbol><symbol viewBox="0 0 100.353 100.352" id="svg-Tilda_Icons_1ed_location"><path d="M58.23,69.992l14.993-24.108c0.049-0.078,0.09-0.16,0.122-0.245c2.589-4.222,3.956-9.045,3.956-13.969 c0-14.772-12.018-26.79-26.79-26.79S23.72,16.898,23.72,31.67c0,4.925,1.369,9.75,3.96,13.975c0.03,0.074,0.065,0.146,0.107,0.216 l14.455,24.191c-11.221,1.586-18.6,6.2-18.6,11.797c0,6.935,11.785,12.366,26.829,12.366S77.3,88.783,77.3,81.849 C77.301,76.226,69.578,71.509,58.23,69.992z M30.373,44.294c-2.39-3.804-3.653-8.169-3.653-12.624 c0-13.118,10.672-23.79,23.791-23.79c13.118,0,23.79,10.672,23.79,23.79c0,4.457-1.263,8.822-3.652,12.624 c-0.05,0.08-0.091,0.163-0.124,0.249L54.685,70.01c-0.238,0.365-0.285,0.448-0.576,0.926l-4,6.432L30.507,44.564 C30.472,44.471,30.427,44.38,30.373,44.294z M50.472,91.215c-14.043,0-23.829-4.937-23.829-9.366c0-4.02,7.37-7.808,17.283-8.981 l4.87,8.151c0.269,0.449,0.751,0.726,1.274,0.73c0.004,0,0.009,0,0.013,0c0.518,0,1-0.268,1.274-0.708l5.12-8.232 C66.548,73.9,74.3,77.784,74.3,81.849C74.301,86.279,64.515,91.215,50.472,91.215z"/><path d="M60.213,31.67c0-5.371-4.37-9.741-9.741-9.741s-9.741,4.37-9.741,9.741s4.37,9.741,9.741,9.741 C55.843,41.411,60.213,37.041,60.213,31.67z M43.731,31.67c0-3.717,3.024-6.741,6.741-6.741s6.741,3.024,6.741,6.741 s-3.023,6.741-6.741,6.741S43.731,35.387,43.731,31.67z"/></symbol><symbol viewBox="0 0 100.354 100.352" id="svg-Tilda_Icons_1ed_mail"><path d="M93.09,76.224c0.047-0.145,0.079-0.298,0.079-0.459V22.638c0-0.162-0.032-0.316-0.08-0.462	c-0.007-0.02-0.011-0.04-0.019-0.06c-0.064-0.171-0.158-0.325-0.276-0.46c-0.008-0.009-0.009-0.02-0.017-0.029	c-0.005-0.005-0.011-0.007-0.016-0.012c-0.126-0.134-0.275-0.242-0.442-0.323c-0.013-0.006-0.023-0.014-0.036-0.02	c-0.158-0.071-0.33-0.111-0.511-0.123c-0.018-0.001-0.035-0.005-0.053-0.005c-0.017-0.001-0.032-0.005-0.049-0.005H8.465	c-0.017,0-0.033,0.004-0.05,0.005c-0.016,0.001-0.032,0.004-0.048,0.005c-0.183,0.012-0.358,0.053-0.518,0.125	c-0.01,0.004-0.018,0.011-0.028,0.015c-0.17,0.081-0.321,0.191-0.448,0.327c-0.005,0.005-0.011,0.006-0.016,0.011	c-0.008,0.008-0.009,0.019-0.017,0.028c-0.118,0.135-0.213,0.29-0.277,0.461c-0.008,0.02-0.012,0.04-0.019,0.061	c-0.048,0.146-0.08,0.3-0.08,0.462v53.128c0,0.164,0.033,0.32,0.082,0.468c0.007,0.02,0.011,0.039,0.018,0.059	c0.065,0.172,0.161,0.327,0.28,0.462c0.007,0.008,0.009,0.018,0.016,0.026c0.006,0.007,0.014,0.011,0.021,0.018	c0.049,0.051,0.103,0.096,0.159,0.14c0.025,0.019,0.047,0.042,0.073,0.06c0.066,0.046,0.137,0.083,0.21,0.117	c0.018,0.008,0.034,0.021,0.052,0.028c0.181,0.077,0.38,0.121,0.589,0.121h83.204c0.209,0,0.408-0.043,0.589-0.121	c0.028-0.012,0.054-0.03,0.081-0.044c0.062-0.031,0.124-0.063,0.181-0.102c0.03-0.021,0.057-0.048,0.086-0.071	c0.051-0.041,0.101-0.082,0.145-0.129c0.008-0.008,0.017-0.014,0.025-0.022c0.008-0.009,0.01-0.021,0.018-0.03	c0.117-0.134,0.211-0.288,0.275-0.458C93.078,76.267,93.083,76.246,93.09,76.224z M9.965,26.04l25.247,23.061L9.965,72.346V26.04z M61.711,47.971c-0.104,0.068-0.214,0.125-0.301,0.221c-0.033,0.036-0.044,0.083-0.073,0.121l-11.27,10.294L12.331,24.138h75.472	L61.711,47.971z M37.436,51.132l11.619,10.613c0.287,0.262,0.649,0.393,1.012,0.393s0.725-0.131,1.011-0.393l11.475-10.481	l25.243,23.002H12.309L37.436,51.132z M64.778,49.232L90.169,26.04v46.33L64.778,49.232z"/></symbol><symbol viewBox="0 0 100.4 100.4" id="svg-Tilda_Icons_1ed_phone"><path d="M69.3,8.6H28c-5.3,0-9.7,4.3-9.7,9.6v66.2c0,5.3,4.3,9.6,9.7,9.6h41.3c5.3,0,9.7-4.3,9.7-9.6V18.2 C79,12.9,74.7,8.6,69.3,8.6z M76,84.4c0,3.7-3,6.6-6.7,6.6H28c-3.7,0-6.7-3-6.7-6.6V18.2c0-3.7,3-6.6,6.7-6.6h41.3 c3.7,0,6.7,3,6.7,6.6V84.4z"/><path d="M60.9 18.1H36.2c-.8 0-1.5.7-1.5 1.5s.7 1.5 1.5 1.5h24.7c.8 0 1.5-.7 1.5-1.5S61.7 18.1 60.9 18.1zM48.6 75.4c-2.8 0-5 2.3-5 5 0 1.3.5 2.6 1.5 3.5.9.9 2.2 1.4 3.5 1.4 0 0 0 0 0 0 2.8 0 5-2.3 5-5C53.6 77.6 51.4 75.4 48.6 75.4zM48.7 82.4C48.7 82.4 48.7 82.4 48.7 82.4c-.5 0-1-.2-1.4-.6-.4-.4-.6-.9-.6-1.4 0-1.1.9-2 2-2 0 0 0 0 0 0 1.1 0 2 .9 2 2C50.7 81.5 49.8 82.4 48.7 82.4z"/></symbol><symbol viewBox="0 0 100.4 100.4" id="svg-Tilda_Icons_1ed_purse"><path d="M92.4,14.8H23.1c-0.4,0-0.8,0.2-1.1,0.5L6.6,31.2c0,0,0,0,0,0l0,0c0,0,0,0,0,0c-0.1,0.1-0.2,0.3-0.3,0.5c0,0,0,0,0,0 c-0.1,0.2-0.1,0.4-0.1,0.5v53.9c0,0.8,0.7,1.5,1.5,1.5h77c0.8,0,1.5-0.7,1.5-1.5V80h6.2c0.8,0,1.5-0.7,1.5-1.5V60.4 c0,0,0-0.1,0-0.1c0-0.1,0-0.1,0-0.2V38.2V16.3C93.9,15.5,93.2,14.8,92.4,14.8z M23.7,17.8h67.1v19.9l-4.7,5.8V32.3 c0-0.8-0.7-1.5-1.5-1.5H11.2L23.7,17.8z M83.2,84.7h-74V33.8h74v12.4H66c-7,0-12.6,5.7-12.6,12.6c0,7,5.7,12.6,12.6,12.6h17.2V84.7 z M84.2,68.4H66c-5.3,0-9.6-4.3-9.6-9.6c0-5.3,4.3-9.6,9.6-9.6h18.7c0.5,0,0.9-0.2,1.2-0.6l5-6.1v17.4L84.2,68.4z M90.9,77h-4.7 v-6.2c0,0,0,0,0,0l4.7-6L90.9,77L90.9,77z"/><path d="M32.7,25.6h38c0.8,0,1.5-0.7,1.5-1.5s-0.7-1.5-1.5-1.5h-38c-0.8,0-1.5,0.7-1.5,1.5S31.8,25.6,32.7,25.6z"/></symbol><symbol viewBox="0 0 99.3 99.3" id="svg-Tilda_Icons_1ed_speaker"><path d="M42.9,41.3c9.3,0,16.9-7.6,16.9-16.9c0-9.3-7.6-16.8-16.9-16.8C33.6,7.6,26,15.1,26,24.4C26,33.7,33.6,41.3,42.9,41.3z M42.9,10.6c7.6,0,13.9,6.2,13.9,13.8c0,7.6-6.2,13.9-13.9,13.9C35.2,38.3,29,32,29,24.4C29,16.8,35.2,10.6,42.9,10.6z"/><path d="M88.4,72h-4.5V49c0-0.4-0.1-0.8-0.4-1L79.8,44c1.2-2.3,0.6-5.2-1.4-6.9l-4.1-3.5c-1.2-1-2.7-1.5-4.2-1.3 c-1.5,0.1-2.9,0.8-3.9,2c-2,2.4-1.7,6.1,0.7,8.1l4.1,3.5c1.1,0.9,2.4,1.4,3.7,1.4c1.1,0,2.2-0.3,3.1-0.9l3.1,3.3V72h-8.5 c-0.4-15.7-13.3-28.3-29-28.3c-15.8,0-28.7,12.6-29,28.3h-3.7c-0.8,0-1.5,0.7-1.5,1.5v16.4c0,0.8,0.7,1.5,1.5,1.5h77.8 c0.8,0,1.5-0.7,1.5-1.5V73.5C89.9,72.7,89.2,72,88.4,72z M72.9,43.6l-4.1-3.5c-1.2-1-1.3-2.7-0.3-3.9c0.5-0.6,1.1-0.9,1.9-1 c0.1,0,0.2,0,0.2,0c0.6,0,1.3,0.2,1.8,0.7l4.1,3.5l0,0c1.2,1,1.3,2.7,0.3,3.9C75.8,44.4,74.1,44.6,72.9,43.6z M43.3,46.6 c14.1,0,25.7,11.3,26,25.3H17.3C17.7,57.9,29.2,46.6,43.3,46.6z M86.9,88.4H12.1V75h74.8V88.4z"/></symbol><symbol viewBox="0 0 100.4 100.4" id="svg-Tilda_Icons_1ed_teacher"><path d="M20.4 19.3L32 24.4c-2.3 3.4-3.5 7.3-3.5 11.4 0 11.2 9.1 20.4 20.4 20.4s20.4-9.1 20.4-20.4c0-4-1.2-8-3.4-11.3l10.2-4.8 0 19.4L73 45.7c-.2.5-.2 1 .1 1.4s.8.7 1.3.7h5.9c.5 0 1-.2 1.2-.7.3-.4.3-.9.1-1.4l-2.7-6.6V18.4c0-.8-.1-1.4-1.5-2C77.1 16.3 49.6 4.1 49.6 4.1c-.4-.2-.8-.2-1.2 0l-28 12.4c-.5.2-.9.8-.9 1.4S19.8 19 20.4 19.3zM66.2 35.8c0 9.6-7.8 17.4-17.4 17.4s-17.4-7.8-17.4-17.4c0-3.7 1.2-7.2 3.3-10.2l13.6 6.1c.2.1.4.1.6.1s.4 0 .6-.1l13.4-6C65.1 28.7 66.2 32.2 66.2 35.8zM76.7 44.8l.7-1.5.6 1.5H76.7zM49 7.1l24.3 10.8L49 28.7 24.7 17.9 49 7.1zM49.4 59.8C29.9 59.8 14 75.7 14 95.2c0 .8.7 1.5 1.5 1.5h67.8c.8 0 1.5-.7 1.5-1.5C84.8 75.7 68.9 59.8 49.4 59.8zM17.1 93.7c.8-17.2 15-30.9 32.4-30.9S81 76.6 81.8 93.7H17.1z"/></symbol><symbol viewBox="0 0 100.4 100.4" id="svg-Tilda_Icons_1ed_timer"><path d="M56.6,16.5v-4.4h4.1c0.8,0,1.5-0.7,1.5-1.5V3.4c0-0.8-0.7-1.5-1.5-1.5H43.2c-0.8,0-1.5,0.7-1.5,1.5v7.2 c0,0.8,0.7,1.5,1.5,1.5h4.1v4.4c-9.7,1.1-18.3,5.6-24.8,12.2L20.8,27l2.8-2.8c0.6-0.6,0.6-1.5,0-2.1l-5.8-5.8 c-0.6-0.6-1.5-0.6-2.1,0L7.8,24c-0.6,0.6-0.6,1.5,0,2.1l5.8,5.8c0.3,0.3,0.7,0.4,1.1,0.4s0.8-0.1,1.1-0.4l2.9-2.9l1.9,1.9 C14.6,38,11,47.2,11,57.2c0,22.6,18.4,41,41,41s41-18.4,41-41C92.9,36.2,77,18.8,56.6,16.5z M14.7,28.8L11,25l5.6-5.6l3.7,3.7 l-2.2,2.2c-0.3,0.3-0.7,0.7-1.1,1.1L14.7,28.8z M48.8,9.1h-4.1V4.9h14.5v4.2h-4.1c-0.8,0-1.5,0.7-1.5,1.5v5.7c-0.5,0-1.1,0-1.6,0 s-1.1,0-1.6,0v-5.7C50.3,9.7,49.6,9.1,48.8,9.1z M51.9,95.2c-20.9,0-38-17-38-38s17-38,38-38c0.8,0,1.6,0,2.4,0.1 c0.4,0,0.8,0.1,1.2,0.1c19.3,1.8,34.4,18.1,34.4,37.8C89.9,78.2,72.9,95.2,51.9,95.2z"/><path d="M73.5,32.6c-0.1-0.1-0.2-0.2-0.3-0.3c-5.7-4.9-13.1-7.8-21.2-7.8c-18.1,0-32.7,14.7-32.7,32.7S33.9,90,51.9,90 s32.7-14.7,32.7-32.7C84.7,47.4,80.3,38.6,73.5,32.6z M51.9,87c-16.4,0-29.7-13.3-29.7-29.7s13.3-29.7,29.7-29.7 c6.9,0,13.2,2.4,18.2,6.3L53.9,52.5c-0.6-0.2-1.3-0.4-1.9-0.4c-2.8,0-5.1,2.3-5.1,5.1s2.3,5.1,5.1,5.1s5-2.3,5-5.1 c0-1-0.3-2-0.8-2.8l16.3-18.7c5.7,5.4,9.2,13,9.2,21.5C81.7,73.6,68.3,87,51.9,87z M54,57.2c0,1.2-0.9,2.1-2.1,2.1 s-2.1-0.9-2.1-2.1c0-1.1,0.9-2.1,2.1-2.1S54,56.1,54,57.2z"/></symbol></svg>